name Run_30002_GRF.mot
datacolumns 19
datarows 15
range 1.593 1.607
endheader
time	     ground_force_vx	     ground_force_vy	     ground_force_vz	     ground_force_px	     ground_force_py	     ground_force_pz	   l_ground_force_vx	   l_ground_force_vy	   l_ground_force_vz	   l_ground_force_px	   l_ground_force_py	   l_ground_force_pz	     ground_torque_x	     ground_torque_y	     ground_torque_z	   l_ground_torque_x	   l_ground_torque_y	   l_ground_torque_z	
1.593	          0.00000000	          0.00000000	          0.00000000	          0.00000000	          0.00000000	          0.00000000	         -7.57794300	         30.70599900	          2.55016600	          1.09027600	          0.00000000	         -0.35420600	          0.00000000	          0.00000000	          0.00000000	          0.00000000	         -0.79840300	          0.00000000	
1.594	          0.00000000	          0.00000000	          0.00000000	          0.00000000	          0.00000000	          0.00000000	         -8.45485200	         35.22154600	          2.73957500	          1.09026100	          0.00000000	         -0.35526500	          0.00000000	          0.00000000	          0.00000000	          0.00000000	         -0.97107000	          0.00000000	
1.595	          0.00000000	          0.00000000	          0.00000000	          0.00000000	          0.00000000	          0.00000000	         -9.36739300	         40.28128800	          2.95240200	          1.09045700	          0.00000000	         -0.35613600	          0.00000000	          0.00000000	          0.00000000	          0.00000000	         -1.14993000	          0.00000000	
1.596	          0.00000000	          0.00000000	          0.00000000	          0.00000000	          0.00000000	          0.00000000	        -10.30649900	         45.93095800	          3.19000600	          1.09082100	          0.00000000	         -0.35686100	          0.00000000	          0.00000000	          0.00000000	          0.00000000	         -1.33460400	          0.00000000	
1.597	          0.00000000	          0.00000000	          0.00000000	          0.00000000	          0.00000000	          0.00000000	        -11.26150400	         52.21738800	          3.45369600	          1.09131300	          0.00000000	         -0.35746700	          0.00000000	          0.00000000	          0.00000000	          0.00000000	         -1.52467600	          0.00000000	
1.598	          0.00000000	          0.00000000	          0.00000000	          0.00000000	          0.00000000	          0.00000000	        -12.22023500	         59.18820600	          3.74470500	          1.09190000	          0.00000000	         -0.35797800	          0.00000000	          0.00000000	          0.00000000	          0.00000000	         -1.71969700	          0.00000000	
1.599	          0.00000000	          0.00000000	          0.00000000	          0.00000000	          0.00000000	          0.00000000	        -13.16921300	         66.89150200	          4.06417500	          1.09255300	          0.00000000	         -0.35840900	          0.00000000	          0.00000000	          0.00000000	          0.00000000	         -1.91918300	          0.00000000	
1.6	          0.00000000	          0.00000000	          0.00000000	          0.00000000	          0.00000000	          0.00000000	        -14.09392500	         75.37542700	          4.41313100	          1.09324500	          0.00000000	         -0.35877400	          0.00000000	          0.00000000	          0.00000000	          0.00000000	         -2.12262000	          0.00000000	
1.601	          0.00000000	          0.00000000	          0.00000000	          0.00000000	          0.00000000	          0.00000000	        -14.97918700	         84.68780500	          4.79245900	          1.09395300	          0.00000000	         -0.35908000	          0.00000000	          0.00000000	          0.00000000	          0.00000000	         -2.32946100	          0.00000000	
1.602	          0.00000000	          0.00000000	          0.00000000	          0.00000000	          0.00000000	          0.00000000	        -15.80960700	         94.87563300	          5.20287500	          1.09465800	          0.00000000	         -0.35933600	          0.00000000	          0.00000000	          0.00000000	          0.00000000	         -2.53913200	          0.00000000	
1.603	          0.00000000	          0.00000000	          0.00000000	          0.00000000	          0.00000000	          0.00000000	        -16.57011000	        105.98461200	          5.64489700	          1.09534200	          0.00000000	         -0.35954400	          0.00000000	          0.00000000	          0.00000000	          0.00000000	         -2.75103100	          0.00000000	
1.604	          0.00000000	          0.00000000	          0.00000000	          0.00000000	          0.00000000	          0.00000000	        -17.24655300	        118.05856300	          6.11881600	          1.09599100	          0.00000000	         -0.35970700	          0.00000000	          0.00000000	          0.00000000	          0.00000000	         -2.96453000	          0.00000000	
1.605	          0.00000000	          0.00000000	          0.00000000	          0.00000000	          0.00000000	          0.00000000	        -17.82636300	        131.13879400	          6.62466400	          1.09659100	          0.00000000	         -0.35982900	          0.00000000	          0.00000000	          0.00000000	          0.00000000	         -3.17898200	          0.00000000	
1.606	          0.00000000	          0.00000000	          0.00000000	          0.00000000	          0.00000000	          0.00000000	        -18.29922700	        145.26342800	          7.16217600	          1.09713400	          0.00000000	         -0.35990900	          0.00000000	          0.00000000	          0.00000000	          0.00000000	         -3.39371500	          0.00000000	
1.607	          0.00000000	          0.00000000	          0.00000000	          0.00000000	          0.00000000	          0.00000000	        -18.65776800	        160.46666000	          7.73076100	          1.09761000	          0.00000000	         -0.35994900	          0.00000000	          0.00000000	          0.00000000	          0.00000000	         -3.60804400	          0.00000000	
